SplineFontDB: 3.2
FontName: HoneywellMCDUSmall
FullName: HoneywellMCDUSmall
FamilyName: HoneywellMCDUSmall
Weight: Regular
Copyright: Copyright (c) 2021, Tyler Knox
UComments: "2021-2-19: Created with FontForge (http://fontforge.org)"
Version: 001.000
ItalicAngle: 0
UnderlinePosition: -100
UnderlineWidth: 50
Ascent: 800
Descent: 200
InvalidEm: 0
LayerCount: 2
Layer: 0 0 "Back" 1
Layer: 1 0 "Fore" 0
XUID: [1021 809 -1304484988 31564]
FSType: 0
OS2Version: 0
OS2_WeightWidthSlopeOnly: 0
OS2_UseTypoMetrics: 1
CreationTime: 1613771739
ModificationTime: 1613950537
PfmFamily: 17
TTFWeight: 400
TTFWidth: 5
LineGap: 90
VLineGap: 0
OS2TypoAscent: 0
OS2TypoAOffset: 1
OS2TypoDescent: 0
OS2TypoDOffset: 1
OS2TypoLinegap: 90
OS2WinAscent: 0
OS2WinAOffset: 1
OS2WinDescent: 0
OS2WinDOffset: 1
HheadAscent: 0
HheadAOffset: 1
HheadDescent: 0
HheadDOffset: 1
OS2Vendor: 'PfEd'
MarkAttachClasses: 1
DEI: 91125
Encoding: UnicodeFull
UnicodeInterp: none
NameList: AGL For New Fonts
DisplaySize: -48
AntiAlias: 1
FitToEm: 0
WinInfo: 16 16 6
BeginPrivate: 0
EndPrivate
BeginChars: 1114112 54

StartChar: A
Encoding: 65 65 0
Width: 720
Flags: HW
LayerCount: 2
Fore
SplineSet
240.000976562 641.197265625 m 1
 442.311523438 -1.2919921875 l 1
 361.0234375 -1.208984375 l 1
 240.000976562 375.470703125 l 1
 118.142578125 -1.2080078125 l 1
 39.3544921875 -1.291015625 l 1
 240.000976562 641.197265625 l 1
159.166992188 276.66796875 m 1
 322.499023438 276.66796875 l 1
 322.499023438 156.66796875 l 1
 159.166992188 156.66796875 l 1
 159.166992188 276.66796875 l 1
EndSplineSet
EndChar

StartChar: B
Encoding: 66 66 1
Width: 720
Flags: HW
LayerCount: 2
Fore
SplineSet
118.334960938 598.388671875 m 5
 119.165039062 -4.9462890625 l 5
 39.1669921875 -5.056640625 l 5
 38.333984375 598.27734375 l 5
 118.334960938 598.388671875 l 5
79.16796875 597.499023438 m 5
 279.83203125 597.499023438 l 6
 331.72265625 597.717773438 375.60546875 572.84375 402.165039062 537.877929688 c 4
 428.725585938 502.913085938 440.426757812 459.575195312 440.48046875 416.72265625 c 4
 440.534179688 373.87109375 428.94921875 330.549804688 402.543945312 295.564453125 c 4
 376.137695312 260.580078125 332.390625 235.620117188 280.668945312 235.833007812 c 6
 79.16796875 235.833007812 l 5
 79.16796875 315.833984375 l 5
 280.998046875 315.833984375 l 4
 309.079101562 315.71875 325.201171875 325.887695312 338.690429688 343.758789062 c 4
 352.1796875 361.630859375 360.513671875 388.892578125 360.479492188 416.625 c 4
 360.444335938 444.356445312 352.046875 471.600585938 338.459960938 489.487304688 c 4
 324.872070312 507.374023438 308.557617188 517.62109375 280.083984375 517.500976562 c 6
 79.16796875 517.500976562 l 5
 79.16796875 597.499023438 l 5
79.16796875 315.833984375 m 5
 280.166992188 315.833984375 l 4
 330.245117188 315.625 372.81640625 295.106445312 400.147460938 264.151367188 c 4
 427.479492188 233.197265625 440.334960938 193.612304688 440.421875 154.540039062 c 4
 440.509765625 115.467773438 427.809570312 75.8046875 400.369140625 44.9248046875 c 4
 372.934570312 14.052734375 330.1015625 -6.072265625 279.834960938 -5.83203125 c 6
 79.001953125 -4.998046875 l 5
 79.333984375 75 l 5
 280.198242188 74.166015625 l 4
 310.46875 74.0166015625 327.900390625 83.8125 340.56640625 98.0654296875 c 4
 353.232421875 112.318359375 360.46875 132.998046875 360.420898438 154.358398438 c 4
 360.373046875 175.71875 353.021484375 196.65625 340.178710938 211.202148438 c 4
 327.3359375 225.747070312 309.763671875 235.708007812 279.83203125 235.833007812 c 6
 79.16796875 235.833007812 l 5
 79.16796875 315.833984375 l 5
EndSplineSet
EndChar

StartChar: C
Encoding: 67 67 2
Width: 720
Flags: HW
LayerCount: 2
Fore
SplineSet
241.0859375 598.338867188 m 1
 241.821289062 598.3203125 l 2
 293.249023438 597.05078125 333.684570312 575.077148438 361.620117188 548.923828125 c 0
 389.555664062 522.76953125 407.642578125 493.653320312 423.865234375 473.157226562 c 1
 361.134765625 423.5078125 l 1
 341.137695312 448.771484375 324.989257812 473.630859375 306.9453125 490.5234375 c 0
 289.022460938 507.303710938 271.813476562 517.400390625 240.44921875 518.303710938 c 0
 186.040039062 517.543945312 158.440429688 507.772460938 144.319335938 493.6640625 c 0
 130.122070312 479.48046875 120.293945312 451.90625 119.999023438 396.502929688 c 2
 119.999023438 396.45703125 l 1
 119.16796875 194.494140625 l 2
 119.71875 139.009765625 129.271484375 111.611328125 142.858398438 97.9794921875 c 0
 156.419921875 84.3720703125 183.653320312 74.740234375 239.185546875 74.1787109375 c 0
 294.42578125 74.5556640625 335.96484375 116.1484375 365.071289062 159.719726562 c 1
 431.594726562 115.280273438 l 1
 395.829101562 61.7421875 333.368164062 -5.3740234375 239.361328125 -5.83203125 c 2
 239.078125 -5.8349609375 l 1
 238.791992188 -5.83203125 l 2
 174.37109375 -5.2294921875 122.259765625 5.3203125 86.1962890625 41.5048828125 c 0
 50.1318359375 77.689453125 39.7939453125 129.71875 39.1669921875 193.774414062 c 2
 39.1669921875 194.0546875 l 1
 40.0009765625 396.853515625 l 1
 40.0009765625 396.875 l 2
 40.337890625 461.434570312 51.453125 513.969726562 87.7763671875 550.258789062 c 0
 124.100585938 586.547851562 176.42578125 597.560546875 240.3515625 598.330078125 c 2
 241.0859375 598.338867188 l 1
EndSplineSet
EndChar

StartChar: D
Encoding: 68 68 3
Width: 720
Flags: HW
LayerCount: 2
Fore
SplineSet
39.16796875 0.3330078125 m 1
 39.16796875 599.166015625 l 1
 119.16796875 599.166015625 l 1
 119.16796875 0.3330078125 l 1
 39.16796875 0.3330078125 l 1
78.333984375 600 m 1
 239.345703125 600 l 1
 239.5234375 599.997070312 l 2
 348.455078125 599.02734375 438.860351562 504.393554688 440.825195312 399.080078125 c 2
 440.833984375 398.705078125 l 1
 440.833984375 197.342773438 l 1
 440.831054688 197.185546875 l 2
 440.4140625 144.055664062 415.155273438 95.4658203125 378.900390625 59.1015625 c 0
 342.645507812 22.736328125 293.9375 0.2119140625 240.40625 -0.3310546875 c 2
 240.204101562 -0.333984375 l 1
 79.16796875 -0.333984375 l 1
 79.16796875 79.6669921875 l 1
 239.637695312 79.6669921875 l 2
 267.142578125 79.9609375 298.516601562 91.7822265625 322.247070312 115.584960938 c 0
 345.977539062 139.387695312 360.606445312 170.783203125 360.833007812 197.770507812 c 2
 360.833007812 397.659179688 l 2
 359.749023438 452.9921875 296.641601562 519.454101562 238.850585938 519.999023438 c 2
 78.333984375 519.999023438 l 1
 78.333984375 600 l 1
EndSplineSet
EndChar

StartChar: E
Encoding: 69 69 4
Width: 720
Flags: HW
LayerCount: 2
Fore
SplineSet
440.094726562 -1.666015625 m 1
 40.0634765625 -2.5927734375 l 1
 39.103515625 600.92578125 l 1
 440.094726562 599.999023438 l 1
 439.91015625 519.999023438 l 1
 119.231445312 520.740234375 l 1
 119.935546875 77.5927734375 l 1
 439.90625 78.3330078125 l 1
 440.094726562 -1.666015625 l 1
79.8935546875 359.166992188 m 1
 400.731445312 360 l 1
 400.939453125 280 l 1
 80.1015625 279.166992188 l 1
 79.8935546875 359.166992188 l 1
EndSplineSet
EndChar

StartChar: F
Encoding: 70 70 5
Width: 720
Flags: HW
LayerCount: 2
Fore
SplineSet
40 -0.8935546875 m 1
 39.1083984375 600.92578125 l 1
 440.094726562 599.999023438 l 1
 439.91015625 519.999023438 l 1
 119.227539062 520.740234375 l 1
 120 -0.7734375 l 1
 40 -0.8935546875 l 1
79.8935546875 359.166992188 m 1
 400.731445312 360 l 1
 400.939453125 280 l 1
 80.1015625 279.166992188 l 1
 79.8935546875 359.166992188 l 1
EndSplineSet
EndChar

StartChar: G
Encoding: 71 71 6
Width: 720
Flags: HW
LayerCount: 2
Fore
SplineSet
115.625976562 34.6455078125 m 0
 153.69140625 8.2392578125 196.276367188 -0.00390625 240.666992188 -0.00390625 c 0
 271.662109375 -0.00390625 299.225585938 4.8994140625 323.302734375 15.0556640625 c 0
 353.541992188 27.810546875 377.182617188 48.9775390625 392.928710938 74.3154296875 c 0
 415.493164062 110.625 422.415039062 153.236328125 422.415039062 196.033203125 c 0
 422.415039062 204.984375 422.357421875 214.328125 421.46484375 223.208984375 c 0
 418.06640625 257.005859375 393.541015625 277.147460938 374.323242188 288.276367188 c 0
 345.465820312 304.987304688 317.815429688 310.9453125 291.959960938 318.428710938 c 1
 269.706054688 241.5703125 l 1
 288.25390625 236.202148438 309.705078125 230.446289062 324.875976562 223.731445312 c 0
 334.16015625 219.62109375 340.049804688 215.249023438 341.9296875 213.473632812 c 0
 342.25 207.525390625 342.415039062 201.700195312 342.415039062 196.033203125 c 0
 342.415039062 161.981445312 336.086914062 134.41015625 324.930664062 116.45703125 c 0
 308.734375 90.3955078125 281.58984375 79.982421875 236.268554688 79.982421875 c 0
 160.3984375 79.982421875 119.633789062 120.872070312 118.333984375 198.586914062 c 2
 119.166992188 440.692382812 l 2
 119.1953125 452.274414062 121.646484375 461.76953125 125.743164062 470.0859375 c 0
 132.069335938 482.928710938 143.099609375 494.091796875 158.43359375 502.883789062 c 0
 178.4609375 514.366210938 203.306640625 520.00390625 227.4453125 520.00390625 c 0
 269.267578125 519.947265625 295.233398438 507.987304688 316.873046875 488.524414062 c 0
 334.504882812 472.666992188 349.958007812 450.025390625 364.397460938 421.760742188 c 1
 435.645507812 458.158203125 l 1
 418.84765625 491.0390625 398.663085938 522.541015625 370.3359375 548.017578125 c 0
 333.815429688 580.862304688 286.084960938 600.016601562 225.088867188 600.016601562 c 0
 149.21875 600.016601562 81.7646484375 561.8671875 53.9306640625 505.359375 c 0
 44.525390625 486.264648438 39.2236328125 464.489257812 39.16796875 440.97265625 c 2
 38.330078125 197.716796875 l 2
 39.4892578125 121.155273438 70.0078125 66.2919921875 115.625976562 34.6455078125 c 0
EndSplineSet
EndChar

StartChar: H
Encoding: 72 72 7
Width: 720
Flags: HW
LayerCount: 2
Fore
SplineSet
119.16796875 598.276367188 m 1
 39.16796875 598.389648438 l 1
 38.3330078125 -2.4443359375 l 1
 118.333007812 -2.5576171875 l 1
 119.16796875 598.276367188 l 1
440.833984375 598.276367188 m 1
 360.833984375 598.389648438 l 1
 360 -3.2763671875 l 1
 440 -3.388671875 l 1
 440.833984375 598.276367188 l 1
78.2275390625 356.66796875 m 1
 78.43359375 276.66796875 l 1
 400.938476562 277.5 l 1
 400.732421875 357.5 l 1
 78.2275390625 356.66796875 l 1
EndSplineSet
EndChar

StartChar: I
Encoding: 73 73 8
Width: 720
Flags: HW
LayerCount: 2
Fore
SplineSet
280.000976562 597.442382812 m 1
 200.000976562 597.555664062 l 1
 199.166992188 -3.2763671875 l 1
 279.166992188 -3.3896484375 l 1
 280.000976562 597.442382812 l 1
EndSplineSet
EndChar

StartChar: L
Encoding: 76 76 9
Width: 720
Flags: HW
LayerCount: 2
Fore
SplineSet
118.333007812 599.166015625 m 1
 38.3330078125 599.166015625 l 1
 38.3330078125 -3.1494140625 l 1
 438.985351562 -5 l 1
 439.35546875 74.9990234375 l 1
 118.333007812 76.482421875 l 1
 118.333007812 599.166015625 l 1
EndSplineSet
EndChar

StartChar: M
Encoding: 77 77 10
Width: 720
Flags: HW
LayerCount: 2
Fore
SplineSet
40.8330078125 -2.5009765625 m 1
 120.833007812 -2.5009765625 l 1
 120.833007812 599.166015625 l 1
 40.8330078125 599.166015625 l 1
 40.8330078125 -2.5009765625 l 1
441.666992188 600 m 1
 361.666992188 600 l 1
 361.666992188 -1.6669921875 l 1
 441.666992188 -1.6669921875 l 1
 441.666992188 600 l 1
241.338867188 417.803710938 m 1
 241.338867188 417.803710938 119.008789062 599.0078125 118.95703125 599.084960938 c 1
 52.6572265625 554.326171875 l 1
 241.997070312 273.860351562 l 1
 428.379882812 555.46484375 l 1
 428.379882812 555.46484375 361.672851562 599.615234375 361.620117188 599.537109375 c 2
 241.338867188 417.803710938 l 1
EndSplineSet
EndChar

StartChar: N
Encoding: 78 78 11
Width: 720
Flags: HW
LayerCount: 2
Fore
SplineSet
40.8330078125 -2.5009765625 m 1
 120.833007812 -2.5009765625 l 1
 120.833007812 599.166015625 l 1
 40.8330078125 599.166015625 l 1
 40.8330078125 -2.5009765625 l 1
441.666992188 600 m 1
 361.666992188 600 l 1
 361.666992188 -1.6669921875 l 1
 441.666992188 -1.6669921875 l 1
 441.666992188 600 l 1
120.80859375 598.580078125 m 2
 50.8095703125 559.841796875 l 1
 361.69140625 -1.912109375 l 1
 431.690429688 36.826171875 l 1
 431.690429688 36.826171875 120.856445312 598.494140625 120.80859375 598.580078125 c 2
EndSplineSet
EndChar

StartChar: O
Encoding: 79 79 12
Width: 720
Flags: HW
LayerCount: 2
Fore
SplineSet
238.815429688 506.682617188 m 0
 295.494140625 506.682617188 361.66796875 457.879882812 361.66796875 398.860351562 c 2
 361.66796875 196.6640625 l 2
 361.66796875 173.736328125 351.288085938 150.361328125 332.70703125 130.926757812 c 0
 308.145507812 105.236328125 274.00390625 90.826171875 239.3984375 90.826171875 c 0
 207.390625 90.826171875 172.974609375 106.772460938 149.768554688 131.518554688 c 0
 131.270507812 151.243164062 120.833007812 175.092773438 120.833007812 198.37109375 c 2
 120.833007812 400 l 2
 120.928710938 422.064453125 131.3828125 445.685546875 150.153320312 465.616210938 c 0
 173.704101562 490.622070312 208.23046875 506.682617188 238.815429688 506.682617188 c 0
91.412109375 76.818359375 m 0
 129.98046875 35.69140625 183.126953125 10.8173828125 242.97265625 10.8173828125 c 0
 299.415039062 10.8173828125 352.890625 36.2939453125 390.529296875 75.6630859375 c 0
 420.708984375 107.228515625 441.666992188 149.284179688 441.666992188 196.6640625 c 2
 441.666992188 398.860351562 l 2
 441.666992188 434.380859375 429.758789062 467.0625 411.103515625 494.45703125 c 0
 373.827148438 549.193359375 308.598632812 586.682617188 238.815429688 586.682617188 c 0
 182.267578125 586.682617188 129.162109375 559.989257812 91.9150390625 520.44140625 c 0
 62.046875 488.728515625 41.0361328125 446.75390625 40.8330078125 400 c 2
 40.8330078125 198.293945312 l 2
 40.8779296875 151.041992188 61.4365234375 108.78125 91.412109375 76.818359375 c 0
EndSplineSet
EndChar

StartChar: P
Encoding: 80 80 13
Width: 720
Flags: HW
LayerCount: 2
Fore
SplineSet
40.8330078125 -2.5009765625 m 1
 120.833007812 -2.5009765625 l 1
 120.833007812 600 l 1
 40.8330078125 600 l 1
 40.8330078125 -2.5009765625 l 1
282.51953125 337.499023438 m 2
 81.6669921875 337.499023438 l 1
 81.6669921875 257.499023438 l 1
 282.51953125 257.499023438 l 2
 322.684570312 257.499023438 359.571289062 266.546875 388.654296875 289.532226562 c 0
 425.899414062 318.966796875 441.633789062 364.72265625 442.504882812 416.598632812 c 0
 441.921875 460.090820312 432.375 499.844726562 410.590820312 532.466796875 c 0
 384.7109375 571.223632812 342.583007812 600.512695312 282.130859375 600.01171875 c 2
 79.6630859375 598.331054688 l 1
 80.32421875 518.333984375 l 1
 281.146484375 519.994140625 l 2
 312.168945312 518.84375 330.983398438 507.6328125 344.012695312 488.12109375 c 0
 354.626953125 472.225585938 361.983398438 448.178710938 362.495117188 416.73828125 c 0
 361.767578125 379.985351562 351.506835938 362.125976562 339.109375 352.328125 c 0
 328.586914062 344.012695312 310.978515625 337.499023438 282.51953125 337.499023438 c 2
EndSplineSet
EndChar

StartChar: R
Encoding: 82 82 14
Width: 720
Flags: HW
LayerCount: 2
Fore
SplineSet
40.8330078125 -2.5009765625 m 1
 120.833007812 -2.5009765625 l 1
 120.833007812 600 l 1
 40.8330078125 600 l 1
 40.8330078125 -2.5009765625 l 1
282.51953125 337.499023438 m 2
 81.6669921875 337.499023438 l 1
 81.6669921875 257.499023438 l 1
 282.51953125 257.499023438 l 2
 322.684570312 257.499023438 359.571289062 266.546875 388.654296875 289.532226562 c 0
 425.899414062 318.966796875 441.633789062 364.72265625 442.504882812 416.598632812 c 0
 441.921875 460.090820312 432.375 499.844726562 410.590820312 532.466796875 c 0
 384.7109375 571.223632812 342.583007812 600.512695312 282.130859375 600.01171875 c 2
 79.6630859375 598.331054688 l 1
 80.32421875 518.333984375 l 1
 281.146484375 519.994140625 l 2
 312.168945312 518.84375 330.983398438 507.6328125 344.012695312 488.12109375 c 0
 354.626953125 472.225585938 361.983398438 448.178710938 362.495117188 416.73828125 c 0
 361.767578125 379.985351562 351.506835938 362.125976562 339.109375 352.328125 c 0
 328.586914062 344.012695312 310.978515625 337.499023438 282.51953125 337.499023438 c 2
212.623046875 322.311523438 m 1
 147.375976562 276.021484375 l 1
 342.377929688 -2.3115234375 l 1
 442.624023438 -1.8544921875 l 1
 212.623046875 322.311523438 l 1
EndSplineSet
EndChar

StartChar: T
Encoding: 84 84 15
Width: 720
Flags: HW
LayerCount: 2
Fore
SplineSet
200.833007812 -2.5009765625 m 1
 280.833007812 -2.5009765625 l 1
 280.833007812 600 l 1
 200.833007812 600 l 1
 200.833007812 -2.5009765625 l 1
40.0009765625 599.166992188 m 1
 40.0009765625 519.166992188 l 1
 440.833007812 519.166992188 l 1
 440.833007812 599.166992188 l 1
 40.0009765625 599.166992188 l 1
EndSplineSet
EndChar

StartChar: U
Encoding: 85 85 16
Width: 720
Flags: HW
LayerCount: 2
Fore
SplineSet
40.833984375 599.166015625 m 1
 120.83203125 599.166015625 l 1
 120.83203125 198.333007812 l 2
 120.831054688 155.040039062 135.671875 127.897460938 157.5234375 108.741210938 c 0
 179.374023438 89.5849609375 210.19921875 79.15625 241.596679688 79.291015625 c 0
 272.995117188 79.4248046875 303.8515625 90.14453125 325.618164062 109.399414062 c 0
 347.384765625 128.654296875 361.946289062 155.595703125 361.666015625 198.068359375 c 2
 361.666015625 198.200195312 l 1
 361.666015625 599.166015625 l 1
 441.66796875 599.166015625 l 1
 441.66796875 198.333007812 l 1
 441.665039062 198.59765625 l 1
 442.079101562 135.731445312 416.883789062 83.3251953125 378.623046875 49.48046875 c 0
 340.36328125 15.634765625 290.922851562 -0.4970703125 241.938476562 -0.70703125 c 0
 192.953125 -0.9169921875 143.307617188 14.8173828125 104.786132812 48.587890625 c 0
 66.2646484375 82.3583984375 40.8330078125 134.911132812 40.833984375 198.333007812 c 2
 40.833984375 599.166015625 l 1
EndSplineSet
EndChar

StartChar: V
Encoding: 86 86 17
Width: 720
Flags: HW
LayerCount: 2
Fore
SplineSet
120.39453125 599.470703125 m 1
 241.280273438 248.603515625 l 1
 362.860351562 599.237304688 l 1
 441.307617188 598.26171875 l 1
 242.055664062 -3.6044921875 l 1
 38.7705078125 598.028320312 l 1
 120.39453125 599.470703125 l 1
EndSplineSet
EndChar

StartChar: Q
Encoding: 81 81 18
Width: 720
Flags: HW
LayerCount: 2
Fore
SplineSet
238.815429688 506.682617188 m 0
 295.494140625 506.682617188 361.66796875 457.879882812 361.66796875 398.860351562 c 2
 361.66796875 196.6640625 l 2
 361.66796875 173.736328125 351.288085938 150.361328125 332.70703125 130.926757812 c 0
 308.145507812 105.236328125 274.00390625 90.826171875 239.3984375 90.826171875 c 0
 207.390625 90.826171875 172.974609375 106.772460938 149.768554688 131.518554688 c 0
 131.270507812 151.243164062 120.833007812 175.092773438 120.833007812 198.37109375 c 2
 120.833007812 400 l 2
 120.928710938 422.064453125 131.3828125 445.685546875 150.153320312 465.616210938 c 0
 173.704101562 490.622070312 208.23046875 506.682617188 238.815429688 506.682617188 c 0
91.412109375 76.818359375 m 0
 129.98046875 35.69140625 183.126953125 10.8173828125 242.97265625 10.8173828125 c 0
 299.415039062 10.8173828125 352.890625 36.2939453125 390.529296875 75.6630859375 c 0
 420.708984375 107.228515625 441.666992188 149.284179688 441.666992188 196.6640625 c 2
 441.666992188 398.860351562 l 2
 441.666992188 434.380859375 429.758789062 467.0625 411.103515625 494.45703125 c 0
 373.827148438 549.193359375 308.598632812 586.682617188 238.815429688 586.682617188 c 0
 182.267578125 586.682617188 129.162109375 559.989257812 91.9150390625 520.44140625 c 0
 62.046875 488.728515625 41.0361328125 446.75390625 40.8330078125 400 c 2
 40.8330078125 198.293945312 l 2
 40.8779296875 151.041992188 61.4365234375 108.78125 91.412109375 76.818359375 c 0
268.98046875 227.586914062 m 1
 212.684570312 170.74609375 l 1
 386.850585938 -1.7529296875 l 1
 442.499023438 -1.666015625 l 1
 443.147460938 55.0869140625 l 1
 268.98046875 227.586914062 l 1
EndSplineSet
EndChar

StartChar: S
Encoding: 83 83 19
Width: 720
Flags: HW
LayerCount: 2
Fore
SplineSet
72.291015625 529.708007812 m 0
 51.27734375 504.934570312 38.3330078125 473.051757812 38.3330078125 436.159179688 c 0
 39.2060546875 401.165039062 50.912109375 369.569335938 69.6328125 343.0234375 c 0
 107.032226562 289.991210938 170.873046875 256.395507812 239.401367188 257.497070312 c 0
 274.749023438 257.250976562 308.505859375 247.65234375 329.920898438 232.473632812 c 0
 340.627929688 224.884765625 348.185546875 216.318359375 353.115234375 206.588867188 c 0
 366.317382812 180.526367188 359.435546875 148.634765625 343.655273438 126.512695312 c 0
 322.165039062 96.3876953125 280.166992188 74.7763671875 240.375 74.998046875 c 0
 190.9140625 75.4521484375 142.387695312 95.22265625 125.412109375 127.736328125 c 0
 121.068359375 136.056640625 118.513671875 145.313476562 118.327148438 156.51171875 c 1
 38.337890625 155.178710938 l 1
 39.4296875 89.6689453125 79.6708984375 47.1220703125 123.041015625 23.5537109375 c 0
 158.34375 4.3701171875 199.331054688 -5.0029296875 240.857421875 -5.0029296875 c 0
 306.322265625 -5.0029296875 370.94921875 27.033203125 408.825195312 80.1279296875 c 0
 428.188476562 107.271484375 440.409179688 140.110351562 439.997070312 177.120117188 c 0
 439.65625 233.620117188 410.2890625 273.555664062 376.108398438 297.784179688 c 0
 335.896484375 326.287109375 286.607421875 337.471679688 236.262695312 337.471679688 c 0
 196.483398438 337.471679688 156.258789062 358.986328125 135.055664062 389.053710938 c 0
 124.634765625 403.830078125 118.80078125 420.181640625 118.333007812 437.172851562 c 0
 118.37890625 454.030273438 123.715820312 466.681640625 133.319335938 478.00390625 c 0
 141.977539062 488.209960938 154.91796875 497.506835938 171.103515625 504.546875 c 0
 191.140625 513.26171875 215.528320312 518.140625 238.885742188 518.329101562 c 0
 268.846679688 517.678710938 293.75 510.649414062 310.553710938 499.984375 c 0
 322.266601562 492.55078125 330.342773438 483.677734375 335.826171875 472.256835938 c 0
 340.240234375 463.061523438 343.142578125 451.637695312 343.3359375 436.962890625 c 1
 423.329101562 438.018554688 l 1
 422.514648438 499.755859375 392.421875 542.7734375 353.338867188 567.578125 c 0
 320.266601562 588.568359375 280.884765625 597.53515625 239.453125 598.333984375 c 0
 169.573242188 598.333984375 107.494140625 571.209960938 72.291015625 529.708007812 c 0
EndSplineSet
EndChar

StartChar: W
Encoding: 87 87 20
Width: 720
Flags: HW
LayerCount: 2
Fore
SplineSet
118.333007812 598.389648438 m 1
 38.3330078125 598.278320312 l 1
 39.16796875 -5.0556640625 l 1
 119.16796875 -4.9453125 l 1
 118.333007812 598.389648438 l 1
440 598.333007812 m 1
 360 598.333007812 l 1
 360 -5 l 1
 440 -5 l 1
 440 598.333007812 l 1
53.0771484375 40.4501953125 m 1
 53.0771484375 40.4501953125 118.5390625 -5.5224609375 118.588867188 -5.451171875 c 2
 239.229492188 166.329101562 l 1
 239.229492188 166.329101562 359.78515625 -4.6767578125 359.834960938 -4.748046875 c 2
 425.213867188 41.3427734375 l 1
 239.104492188 305.336914062 l 1
 53.0771484375 40.4501953125 l 1
EndSplineSet
EndChar

StartChar: X
Encoding: 88 88 21
Width: 720
Flags: HW
LayerCount: 2
Fore
SplineSet
352.015625 600.12890625 m 1
 441.317382812 600.704101562 l 1
 122.985351562 0.7041015625 l 1
 38.6806640625 0.12890625 l 1
 352.015625 600.12890625 l 1
123.8671875 601.701171875 m 1
 438.865234375 0.0341796875 l 1
 346.965820312 1.6328125 l 1
 36.9677734375 603.296875 l 1
 123.8671875 601.701171875 l 1
EndSplineSet
EndChar

StartChar: J
Encoding: 74 74 22
Width: 720
Flags: HW
LayerCount: 2
Fore
SplineSet
239.668945312 -2.6474609375 m 0
 353.84375 -2.6474609375 440.8359375 78.3876953125 440.8359375 194.556640625 c 2
 440 597.583984375 l 1
 360 597.41796875 l 1
 360.836914062 194.556640625 l 2
 360.836914062 148.358398438 342.46875 119.392578125 316.713867188 100.853515625 c 0
 295.677734375 85.7119140625 267.838867188 77.3525390625 239.668945312 77.3525390625 c 0
 211.479492188 77.3525390625 183.576171875 85.7275390625 162.487304688 100.868164062 c 0
 136.413085938 119.588867188 117.9375 148.890625 118.331054688 195.48828125 c 1
 38.333984375 196.17578125 l 1
 37.34375 78.802734375 125.034179688 -2.6474609375 239.668945312 -2.6474609375 c 0
EndSplineSet
EndChar

StartChar: K
Encoding: 75 75 23
Width: 720
Flags: HW
LayerCount: 2
Fore
SplineSet
119.16796875 599.166015625 m 5
 119.16796875 -1.6669921875 l 5
 39.16796875 -1.6669921875 l 5
 39.16796875 599.166015625 l 5
 119.16796875 599.166015625 l 5
322.293945312 598.79296875 m 1
 439.373046875 597.87109375 l 1
 98.5419921875 288.706054688 l 1
 44.79296875 347.9609375 l 1
 322.293945312 598.79296875 l 1
147.4375 349.723632812 m 1
 440.76953125 -1.94140625 l 1
 335.896484375 -1.3916015625 l 1
 85.8974609375 298.609375 l 1
 147.4375 349.723632812 l 1
EndSplineSet
EndChar

StartChar: Y
Encoding: 89 89 24
Width: 720
Flags: HW
LayerCount: 2
Fore
SplineSet
199.166992188 0.833984375 m 5
 199.166992188 362.5 l 5
 279.166992188 362.5 l 5
 279.166992188 0.833984375 l 5
 199.166992188 0.833984375 l 5
130.776367188 601.723632812 m 1
 279.946289062 361.724609375 l 1
 211.721679688 319.943359375 l 1
 39.22265625 601.608398438 l 1
 130.776367188 601.723632812 l 1
350.100585938 600.130859375 m 1
 439.899414062 600.701171875 l 1
 266.56640625 319.036132812 l 1
 198.434570312 360.96484375 l 1
 350.100585938 600.130859375 l 1
EndSplineSet
EndChar

StartChar: Z
Encoding: 90 90 25
Width: 720
Flags: HW
LayerCount: 2
Fore
SplineSet
38.41796875 600.833007812 m 1
 38.2490234375 520.833007812 l 1
 439.08203125 519.999023438 l 1
 439.251953125 599.999023438 l 1
 38.41796875 600.833007812 l 1
38.2490234375 80.0009765625 m 1
 38.4150390625 0.0009765625 l 1
 440.084960938 0.8330078125 l 1
 439.918945312 80.8330078125 l 1
 38.2490234375 80.0009765625 l 1
437.969726562 519.0234375 m 1
 437.969726562 519.0234375 372.081054688 564.385742188 372.030273438 564.311523438 c 2
 38.697265625 80.14453125 l 1
 38.697265625 80.14453125 104.5859375 34.7822265625 104.63671875 34.8564453125 c 2
 437.969726562 519.0234375 l 1
EndSplineSet
EndChar

StartChar: hyphen
Encoding: 45 45 27
Width: 720
Flags: HW
LayerCount: 2
Fore
SplineSet
40.0009765625 360 m 1
 40.0009765625 280 l 1
 440.000976562 280 l 1
 440.000976562 360 l 1
 40.0009765625 360 l 1
EndSplineSet
EndChar

StartChar: arrowleft
Encoding: 8592 8592 28
Width: 720
Flags: HW
LayerCount: 2
Fore
SplineSet
441.836914062 257.5 m 1
 441.504882812 337.499023438 l 1
 38.998046875 335.83203125 l 1
 39.3291015625 255.833007812 l 1
 441.836914062 257.5 l 1
38.669921875 334.390625 m 1
 94.6650390625 277.276367188 l 1
 308.831054688 487.275390625 l 1
 252.8359375 544.389648438 l 1
 38.669921875 334.390625 l 1
95.49609375 312.725585938 m 1
 39.4990234375 255.61328125 l 1
 252.836914062 46.44140625 l 1
 308.833984375 103.553710938 l 1
 95.49609375 312.725585938 l 1
EndSplineSet
EndChar

StartChar: arrowright
Encoding: 8594 8594 29
Width: 720
Flags: HW
LayerCount: 2
Fore
SplineSet
38.99609375 337.499023438 m 1
 38.658203125 257.5 l 1
 441.159179688 255.833007812 l 1
 441.497070312 335.83203125 l 1
 38.99609375 337.499023438 l 1
385.830078125 277.276367188 m 1
 441.829101562 334.38671875 l 1
 227.657226562 544.389648438 l 1
 171.658203125 487.279296875 l 1
 385.830078125 277.276367188 l 1
440.990234375 255.609375 m 1
 384.997070312 312.725585938 l 1
 171.6640625 103.55859375 l 1
 227.65625 46.44140625 l 1
 440.990234375 255.609375 l 1
EndSplineSet
EndChar

StartChar: arrowup
Encoding: 8593 8593 30
Width: 720
Flags: HW
LayerCount: 2
Fore
SplineSet
198.163085938 94.1650390625 m 1
 278.162109375 93.8271484375 l 1
 279.829101562 496.328125 l 1
 199.830078125 496.666015625 l 1
 198.163085938 94.1650390625 l 1
258.387695312 440.998046875 m 1
 201.27734375 496.998046875 l 1
 -8.7275390625 282.828125 l 1
 48.3828125 226.829101562 l 1
 258.387695312 440.998046875 l 1
280.0546875 496.159179688 m 1
 222.938476562 440.166015625 l 1
 432.10546875 226.833984375 l 1
 489.221679688 282.827148438 l 1
 280.0546875 496.159179688 l 1
EndSplineSet
EndChar

StartChar: arrowdown
Encoding: 8595 8595 31
Width: 720
Flags: HW
LayerCount: 2
Fore
SplineSet
282.330078125 496.66796875 m 1
 202.331054688 497.005859375 l 1
 200.6640625 94.5048828125 l 1
 280.663085938 94.1669921875 l 1
 282.330078125 496.66796875 l 1
222.107421875 149.833984375 m 1
 279.217773438 93.8349609375 l 1
 489.220703125 308.005859375 l 1
 432.110351562 364.004882812 l 1
 222.107421875 149.833984375 l 1
200.438476562 94.6728515625 m 1
 257.555664062 150.665039062 l 1
 48.3896484375 364 l 1
 -8.7275390625 308.0078125 l 1
 200.438476562 94.6728515625 l 1
EndSplineSet
EndChar

StartChar: zero
Encoding: 48 48 32
Width: 720
Flags: HW
LayerCount: 2
Fore
SplineSet
238.815429688 506.682617188 m 0
 295.494140625 506.682617188 361.66796875 457.879882812 361.66796875 398.860351562 c 2
 361.66796875 196.6640625 l 2
 361.66796875 173.736328125 351.288085938 150.361328125 332.70703125 130.926757812 c 0
 308.145507812 105.236328125 274.00390625 90.826171875 239.3984375 90.826171875 c 0
 207.390625 90.826171875 172.974609375 106.772460938 149.768554688 131.518554688 c 0
 131.270507812 151.243164062 120.833007812 175.092773438 120.833007812 198.37109375 c 2
 120.833007812 400 l 2
 120.928710938 422.064453125 131.3828125 445.685546875 150.153320312 465.616210938 c 0
 173.704101562 490.622070312 208.23046875 506.682617188 238.815429688 506.682617188 c 0
91.412109375 76.818359375 m 0
 129.98046875 35.69140625 183.126953125 10.8173828125 242.97265625 10.8173828125 c 0
 299.415039062 10.8173828125 352.890625 36.2939453125 390.529296875 75.6630859375 c 0
 420.708984375 107.228515625 441.666992188 149.284179688 441.666992188 196.6640625 c 2
 441.666992188 398.860351562 l 2
 441.666992188 434.380859375 429.758789062 467.0625 411.103515625 494.45703125 c 0
 373.827148438 549.193359375 308.598632812 586.682617188 238.815429688 586.682617188 c 0
 182.267578125 586.682617188 129.162109375 559.989257812 91.9150390625 520.44140625 c 0
 62.046875 488.728515625 41.0361328125 446.75390625 40.8330078125 400 c 2
 40.8330078125 198.293945312 l 2
 40.8779296875 151.041992188 61.4365234375 108.78125 91.412109375 76.818359375 c 0
394.868164062 456.864257812 m 1
 394.868164062 456.864257812 328.516601562 501.547851562 328.46484375 501.470703125 c 2
 79.2978515625 131.470703125 l 1
 79.2978515625 131.470703125 145.650390625 86.787109375 145.702148438 86.8642578125 c 2
 394.868164062 456.864257812 l 1
EndSplineSet
EndChar

StartChar: one
Encoding: 49 49 33
Width: 720
Flags: HW
LayerCount: 2
Fore
SplineSet
200.000976562 -1.6669921875 m 1
 280.000976562 -1.6669921875 l 1
 280.000976562 600.833984375 l 1
 200.000976562 600.833984375 l 1
 200.000976562 -1.6669921875 l 1
268.809570312 557.795898438 m 1
 268.809570312 557.795898438 201.241210938 600.62109375 201.188476562 600.5390625 c 2
 88.6884765625 423.038085938 l 1
 88.6884765625 423.038085938 156.2578125 380.212890625 156.309570312 380.295898438 c 2
 268.809570312 557.795898438 l 1
118.885742188 77.4990234375 m 1
 119.4375 -2.4990234375 l 1
 361.114257812 -0.83203125 l 1
 360.5625 79.166015625 l 1
 118.885742188 77.4990234375 l 1
EndSplineSet
EndChar

StartChar: two
Encoding: 50 50 34
Width: 720
Flags: HW
LayerCount: 2
Fore
SplineSet
440.6640625 -5.83203125 m 1
 441.000976562 74.1669921875 l 1
 37.66796875 75.8330078125 l 1
 37.33203125 -4.1669921875 l 1
 440.6640625 -5.83203125 l 1
376.591796875 567.708007812 m 0
 340.557617188 591.107421875 295.25390625 598.346679688 240.663085938 598.33203125 c 0
 183.114257812 598.091796875 137.799804688 590.443359375 102.290039062 568.547851562 c 0
 61.005859375 543.09375 39.0146484375 500.595703125 38.3349609375 438.78125 c 1
 118.330078125 437.885742188 l 1
 118.51171875 454.447265625 120.759765625 467.087890625 124.184570312 476.14453125 c 0
 128.387695312 487.256835938 133.69921875 493.932617188 144.19140625 500.401367188 c 0
 159.732421875 509.983398438 190.294921875 518.223632812 240.967773438 518.33203125 c 0
 288.430664062 518.434570312 317.721679688 510.553710938 333.103515625 500.565429688 c 0
 355.296875 486.15234375 361.770507812 459.059570312 360.833984375 418.827148438 c 0
 360.833984375 412.720703125 359.124023438 404.272460938 353.626953125 392.711914062 c 0
 346.95703125 378.685546875 335.168945312 361.450195312 319.3671875 342.795898438 c 0
 283.72265625 300.715820312 228.887695312 252.263671875 173.260742188 203.45703125 c 0
 125.342773438 161.413085938 76.822265625 118.995117188 38.1259765625 77.140625 c 1
 96.8564453125 22.841796875 l 1
 175.131835938 107.506835938 305.681640625 202.889648438 380.431640625 291.133789062 c 0
 399.025390625 313.084960938 414.837890625 335.127929688 425.91796875 358.428710938 c 0
 434.6875 376.870117188 440.719726562 396.5546875 440.83203125 417.802734375 c 0
 442.409179688 489.0546875 421.333007812 538.653320312 376.591796875 567.708007812 c 0
EndSplineSet
EndChar

StartChar: three
Encoding: 51 51 35
Width: 720
Flags: HWO
LayerCount: 2
Fore
SplineSet
119.999023438 441.94140625 m 1
 119.916992188 454.161132812 122.416015625 463.8671875 126.602539062 472.2578125 c 0
 131.401367188 481.876953125 138.791992188 490.356445312 149.276367188 497.87109375 c 0
 170.723632812 513.244140625 204.635742188 522.8515625 240.37890625 522.502929688 c 0
 269.5390625 522.177734375 305.971679688 503.891601562 331.254882812 477.953125 c 0
 342.256835938 466.665039062 350.6796875 454.486328125 355.528320312 443.869140625 c 0
 360.177734375 433.689453125 360.844726562 427.993164062 360.844726562 420.563476562 c 0
 360.844726562 397.723632812 355.379882812 385.244140625 347.96484375 376.340820312 c 0
 341.862304688 369.014648438 332.572265625 362.286132812 317.895507812 356.513671875 c 0
 291.45703125 346.115234375 249.737304688 340.904296875 198.443359375 339.993164062 c 1
 199.7265625 260.00390625 l 1
 272.829101562 261.009765625 324.954101562 236.467773438 347.124023438 211.934570312 c 0
 357.638671875 200.299804688 361.409179688 189.635742188 361.657226562 181.065429688 c 0
 361.469726562 176.990234375 359.939453125 169.985351562 356.076171875 161.709960938 c 0
 342.719726562 133.100585938 311.647460938 104.875 282.189453125 91.462890625 c 0
 266.633789062 84.380859375 253.186523438 81.65625 238.55859375 81.65625 c 0
 214.66015625 81.65625 190.446289062 86.59375 170.790039062 95.294921875 c 0
 155.028320312 102.271484375 142.573242188 111.43359375 134.265625 121.379882812 c 0
 124.87109375 132.627929688 119.838867188 144.993164062 119.998046875 161.283203125 c 1
 40.001953125 162.063476562 l 1
 39.650390625 126.0078125 52.4091796875 94.609375 72.8408203125 70.146484375 c 0
 108.352539062 27.6279296875 169.493164062 1.666015625 241.47265625 1.666015625 c 0
 267.826171875 1.666015625 292.688476562 8.3310546875 315.271484375 18.6123046875 c 0
 343.529296875 31.4775390625 368.614257812 50.166015625 389.111328125 71.5556640625 c 0
 405.5234375 88.6826171875 419.141601562 107.66015625 428.608398438 127.938476562 c 0
 436.286132812 144.383789062 441.670898438 161.934570312 441.670898438 181.217773438 c 0
 441.370117188 213.044921875 427.637695312 242.13671875 406.48828125 265.540039062 c 0
 396.827148438 276.231445312 385.58984375 285.934570312 372.94921875 294.541992188 c 1
 386.54296875 302.577148438 398.997070312 312.629882812 409.458984375 325.190429688 c 0
 431.475585938 351.625 440.841796875 384.638671875 440.841796875 423.543945312 c 0
 440.841796875 442.671875 435.885742188 460.514648438 428.33984375 477.038085938 c 0
 418.888671875 497.73046875 405.098632812 516.784179688 388.538085938 533.775390625 c 0
 351.14453125 572.139648438 298.331054688 602.51171875 238.465820312 602.51171875 c 0
 190.391601562 602.51171875 141.572265625 590.767578125 102.743164062 562.935546875 c 0
 68.49609375 538.387695312 40.0009765625 498.614257812 40.0009765625 441.393554688 c 1
 119.999023438 441.94140625 l 1
EndSplineSet
EndChar

StartChar: four
Encoding: 52 52 36
Width: 720
Flags: HW
LayerCount: 2
Fore
SplineSet
319.999023438 -2.4443359375 m 1
 399.999023438 -2.556640625 l 1
 400.833007812 599.110351562 l 1
 320.833007812 599.22265625 l 1
 319.999023438 -2.4443359375 l 1
440.833007812 166.66796875 m 1
 440.833007812 266.66796875 l 1
 37.5 266.66796875 l 1
 37.5 166.66796875 l 1
 440.833007812 166.66796875 l 1
37.8779296875 266.75390625 m 1
 37.8779296875 266.75390625 98.7578125 214.875976562 98.7890625 214.911132812 c 2
 382.123046875 547.412109375 l 1
 382.123046875 547.412109375 321.2421875 599.290039062 321.211914062 599.25390625 c 2
 37.8779296875 266.75390625 l 1
EndSplineSet
EndChar

StartChar: five
Encoding: 53 53 37
Width: 720
Flags: HW
LayerCount: 2
Fore
SplineSet
119.16796875 518.33203125 m 1
 440.000976562 518.33203125 l 1
 440.000976562 598.33203125 l 1
 39.16796875 598.33203125 l 1
 39.16796875 335.833007812 l 1
 119.16796875 335.833007812 l 1
 119.16796875 518.33203125 l 1
238.309570312 300 m 2
 297.829101562 299.634765625 340.845703125 254.01953125 340.845703125 196.426757812 c 0
 340.845703125 157.98046875 319.733398438 116.889648438 289.163085938 95.318359375 c 0
 274.024414062 84.6357421875 256.883789062 78.3310546875 238.176757812 78.3310546875 c 0
 189.875 78.3310546875 142.61328125 98.134765625 126.46875 129.900390625 c 0
 122.360351562 137.983398438 120.024414062 146.905273438 120 157.592773438 c 1
 40 157.411132812 l 1
 40.1484375 92.3583984375 79.8681640625 50.0791015625 122.317382812 26.640625 c 0
 157.4921875 7.2177734375 197.846679688 -1.666015625 239.744140625 -1.666015625 c 0
 275.73046875 -1.15625 308.362304688 10.962890625 335.2109375 29.9091796875 c 0
 389.866210938 68.4755859375 420.837890625 132.239257812 420.837890625 199.537109375 c 0
 420.837890625 300.375976562 338.46875 380.41796875 238.5234375 380.001953125 c 2
 38.1640625 379.166992188 l 1
 38.4970703125 299.166992188 l 1
 238.309570312 300 l 2
EndSplineSet
EndChar

StartChar: six
Encoding: 54 54 38
Width: 720
Flags: HW
LayerCount: 2
Fore
SplineSet
239.729492188 601.6640625 m 2
 239.7578125 601.661132812 l 1
 400.62109375 599.16015625 l 1
 399.37890625 519.170898438 l 1
 238.591796875 521.671875 l 2
 212.421875 522.036132812 181.291992188 507.877929688 157.59765625 484.174804688 c 0
 133.8984375 460.46875 119.125 428.827148438 119.165039062 400.891601562 c 2
 119.165039062 400.861328125 l 1
 119.165039062 302.309570312 l 1
 153.637695312 326.783203125 195.912109375 340.995117188 238.54296875 341.661132812 c 2
 238.724609375 341.665039062 l 1
 238.905273438 341.665039062 l 2
 361.97265625 342.465820312 438.908203125 258.501953125 438.733398438 171.170898438 c 0
 438.55859375 83.83984375 362.154296875 -0.541015625 239.533203125 -1.6640625 c 2
 238.594726562 -1.6728515625 l 1
 237.657226562 -1.6396484375 l 2
 192.078125 0.0810546875 145.8203125 13.470703125 107.799804688 39.7822265625 c 0
 69.779296875 66.09375 39.498046875 109.015625 39.1669921875 161.4140625 c 2
 39.1669921875 161.540039062 l 1
 39.1669921875 400.775390625 l 2
 39.08984375 454.93359375 64.56640625 504.268554688 101.021484375 540.735351562 c 0
 137.4765625 577.203125 186.3984375 602.415039062 239.729492188 601.6640625 c 2
239.616210938 261.66015625 m 0
 181.440429688 260.66015625 122.34765625 214.110351562 120.817382812 158.891601562 c 1
 119.37109375 158.931640625 l 1
 120.454101562 137.092773438 131.651367188 120.5625 153.325195312 105.564453125 c 0
 175.772460938 90.0302734375 208.83203125 79.7158203125 239.745117188 78.37109375 c 0
 328.592773438 79.5322265625 358.647460938 127.295898438 358.735351562 171.331054688 c 0
 358.823242188 215.495117188 329.677734375 262.178710938 239.616210938 261.66015625 c 0
EndSplineSet
EndChar

StartChar: seven
Encoding: 55 55 39
Width: 720
Flags: HW
LayerCount: 2
Fore
SplineSet
38.333984375 600.833007812 m 1
 400.833984375 600.833007812 l 1
 400.833984375 520.833007812 l 1
 38.333984375 520.833007812 l 1
 38.333984375 600.833007812 l 1
329.545898438 558.51953125 m 1
 400.455078125 521.478515625 l 1
 129.62109375 0.6455078125 l 1
 37.8779296875 0.1875 l 1
 329.545898438 558.51953125 l 1
EndSplineSet
EndChar

StartChar: eight
Encoding: 56 56 40
Width: 720
Flags: HW
LayerCount: 2
Fore
SplineSet
238.32421875 600.012695312 m 1
 239.295898438 599.987304688 l 2
 288.673828125 598.799804688 336.580078125 580.41796875 374.231445312 549.723632812 c 0
 411.8828125 519.029296875 440.08984375 473.686523438 440.000976562 420.764648438 c 2
 440.000976562 420.641601562 l 1
 439.997070312 420.518554688 l 2
 439.58203125 367.926757812 409.291015625 324.717773438 370.764648438 299.015625 c 0
 369.42578125 298.123046875 368.001953125 297.375 366.643554688 296.514648438 c 1
 368.987304688 294.706054688 371.40625 293.001953125 373.680664062 291.098632812 c 0
 411.09765625 259.78515625 439.334960938 213.508789062 439.13671875 159.40234375 c 0
 439.844726562 107.146484375 410.223632812 63.630859375 371.94921875 38.10546875 c 0
 333.565429688 12.5087890625 286.60546875 0.70703125 239.766601562 0.0029296875 c 2
 239.391601562 -0 l 1
 239.016601562 -0 l 2
 191.868164062 0.177734375 144.50390625 11.275390625 105.677734375 36.912109375 c 0
 66.8525390625 62.548828125 37.2080078125 106.854492188 37.5 160.217773438 c 2
 37.5029296875 160.645507812 l 1
 37.515625 161.073242188 l 2
 39.0419921875 217.926757812 68.02734375 265.477539062 109.8515625 297.5546875 c 1
 109.120117188 298.020507812 108.344726562 298.411132812 107.619140625 298.88671875 c 0
 68.767578125 324.348632812 37.98046875 367.568359375 37.5029296875 420.47265625 c 2
 37.5 420.690429688 l 1
 37.5 420.909179688 l 2
 37.6005859375 473.900390625 66.587890625 518.8125 104.182617188 549.43359375 c 0
 141.77734375 580.055664062 189.041992188 598.801757812 237.352539062 599.987304688 c 2
 238.32421875 600.012695312 l 1
238.3671875 519.940429688 m 0
 210.801757812 519.004882812 178.209960938 506.548828125 154.706054688 487.404296875 c 0
 131.001953125 468.09765625 117.629882812 444.4375 117.513671875 420.94921875 c 0
 117.80859375 396.8046875 128.96875 380.543945312 151.470703125 365.796875 c 0
 173.999023438 351.033203125 207.6953125 341.76171875 239.828125 341.676757812 c 0
 271.190429688 341.52734375 304.1875 350.770507812 326.365234375 365.56640625 c 0
 348.5859375 380.390625 359.7578125 397.01171875 359.993164062 421.004882812 c 0
 359.997070312 445.42578125 347.03515625 468.67578125 323.680664062 487.71484375 c 0
 300.548828125 506.572265625 268.032226562 518.97265625 238.3671875 519.940429688 c 0
239.474609375 261.681640625 m 0
 239.276367188 261.682617188 239.079101562 261.665039062 238.880859375 261.666015625 c 1
 239.0625 261.666015625 l 1
 180.126953125 261.818359375 119.263671875 213.9140625 117.522460938 159.30078125 c 0
 117.517578125 133.438476562 128.083007812 117.984375 149.756835938 103.672851562 c 0
 171.495117188 89.318359375 205.0234375 80.2041015625 238.9609375 80.013671875 c 0
 272.275390625 80.5859375 305.780273438 90.1376953125 327.5625 104.663085938 c 0
 349.4296875 119.24609375 359.576171875 134.541992188 359.171875 158.4921875 c 2
 359.163085938 158.971679688 l 1
 359.168945312 159.452148438 l 2
 359.35546875 185.666015625 345.717773438 210.181640625 322.33984375 229.74609375 c 0
 298.9609375 249.310546875 266.556640625 261.4765625 239.717773438 261.666015625 c 1
 239.948242188 261.666015625 l 1
 239.791015625 261.666992188 239.6328125 261.681640625 239.474609375 261.681640625 c 0
238.32421875 600.012695312 m 1
 239.295898438 599.987304688 l 2
 288.673828125 598.799804688 336.580078125 580.41796875 374.231445312 549.723632812 c 0
 411.8828125 519.029296875 440.08984375 473.686523438 440.000976562 420.764648438 c 2
 440.000976562 420.641601562 l 1
 439.997070312 420.518554688 l 2
 439.58203125 367.926757812 409.291015625 324.717773438 370.764648438 299.015625 c 0
 369.42578125 298.123046875 368.001953125 297.375 366.643554688 296.514648438 c 1
 368.987304688 294.706054688 371.40625 293.001953125 373.680664062 291.098632812 c 0
 411.09765625 259.78515625 439.334960938 213.508789062 439.13671875 159.40234375 c 0
 439.844726562 107.146484375 410.223632812 63.630859375 371.94921875 38.10546875 c 0
 333.565429688 12.5087890625 286.60546875 0.70703125 239.766601562 0.0029296875 c 2
 239.391601562 -0 l 1
 239.016601562 -0 l 2
 191.868164062 0.177734375 144.50390625 11.275390625 105.677734375 36.912109375 c 0
 66.8525390625 62.548828125 37.2080078125 106.854492188 37.5 160.217773438 c 2
 37.5029296875 160.645507812 l 1
 37.515625 161.073242188 l 2
 39.0419921875 217.926757812 68.02734375 265.477539062 109.8515625 297.5546875 c 1
 109.120117188 298.020507812 108.344726562 298.411132812 107.619140625 298.88671875 c 0
 68.767578125 324.348632812 37.98046875 367.568359375 37.5029296875 420.47265625 c 2
 37.5 420.690429688 l 1
 37.5 420.909179688 l 2
 37.6005859375 473.900390625 66.587890625 518.8125 104.182617188 549.43359375 c 0
 141.77734375 580.055664062 189.041992188 598.801757812 237.352539062 599.987304688 c 2
 238.32421875 600.012695312 l 1
238.3671875 519.940429688 m 0
 210.801757812 519.004882812 178.209960938 506.548828125 154.706054688 487.404296875 c 0
 131.001953125 468.09765625 117.629882812 444.4375 117.513671875 420.94921875 c 0
 117.80859375 396.8046875 128.96875 380.543945312 151.470703125 365.796875 c 0
 173.999023438 351.033203125 207.6953125 341.76171875 239.828125 341.676757812 c 0
 271.190429688 341.52734375 304.1875 350.770507812 326.365234375 365.56640625 c 0
 348.5859375 380.390625 359.7578125 397.01171875 359.993164062 421.004882812 c 0
 359.997070312 445.42578125 347.03515625 468.67578125 323.680664062 487.71484375 c 0
 300.548828125 506.572265625 268.032226562 518.97265625 238.3671875 519.940429688 c 0
239.474609375 261.681640625 m 0
 239.276367188 261.682617188 239.079101562 261.665039062 238.880859375 261.666015625 c 1
 239.0625 261.666015625 l 1
 180.126953125 261.818359375 119.263671875 213.9140625 117.522460938 159.30078125 c 0
 117.517578125 133.438476562 128.083007812 117.984375 149.756835938 103.672851562 c 0
 171.495117188 89.318359375 205.0234375 80.2041015625 238.9609375 80.013671875 c 0
 272.275390625 80.5859375 305.780273438 90.1376953125 327.5625 104.663085938 c 0
 349.4296875 119.24609375 359.576171875 134.541992188 359.171875 158.4921875 c 2
 359.163085938 158.971679688 l 1
 359.168945312 159.452148438 l 2
 359.35546875 185.666015625 345.717773438 210.181640625 322.33984375 229.74609375 c 0
 298.9609375 249.310546875 266.556640625 261.4765625 239.717773438 261.666015625 c 1
 239.948242188 261.666015625 l 1
 239.791015625 261.666992188 239.6328125 261.681640625 239.474609375 261.681640625 c 0
EndSplineSet
EndChar

StartChar: nine
Encoding: 57 57 41
Width: 720
Flags: HW
LayerCount: 2
Fore
SplineSet
238.170898438 -1.6572265625 m 2
 238.142578125 -1.654296875 l 1
 77.279296875 0.8466796875 l 1
 78.521484375 80.8359375 l 1
 239.30859375 78.3349609375 l 2
 265.478515625 77.970703125 296.608398438 92.1298828125 320.303710938 115.83203125 c 0
 344.001953125 139.538085938 358.775390625 171.1796875 358.735351562 199.115234375 c 2
 358.735351562 199.145507812 l 1
 358.735351562 297.697265625 l 1
 324.263671875 273.224609375 281.98828125 259.01171875 239.357421875 258.345703125 c 2
 239.176757812 258.342773438 l 1
 238.995117188 258.342773438 l 2
 115.927734375 257.541015625 38.9921875 341.504882812 39.1669921875 428.8359375 c 0
 39.341796875 516.166992188 115.74609375 600.547851562 238.3671875 601.670898438 c 2
 239.305664062 601.680664062 l 1
 240.244140625 601.646484375 l 2
 285.822265625 599.92578125 332.080078125 586.536132812 370.100585938 560.224609375 c 0
 408.12109375 533.9140625 438.40234375 490.991210938 438.733398438 438.592773438 c 2
 438.733398438 438.466796875 l 1
 438.733398438 199.232421875 l 2
 438.811523438 145.073242188 413.334960938 95.73828125 376.879882812 59.271484375 c 0
 340.424804688 22.8046875 291.501953125 -2.408203125 238.170898438 -1.6572265625 c 2
238.284179688 338.346679688 m 0
 296.459960938 339.34765625 355.552734375 385.897460938 357.083984375 441.115234375 c 1
 358.529296875 441.075195312 l 1
 357.446289062 462.9140625 346.249023438 479.444335938 324.576171875 494.443359375 c 0
 302.127929688 509.977539062 269.068359375 520.291015625 238.155273438 521.635742188 c 0
 149.307617188 520.474609375 119.252929688 472.7109375 119.165039062 428.676757812 c 0
 119.077148438 384.51171875 148.22265625 337.828125 238.284179688 338.346679688 c 0
EndSplineSet
EndChar

StartChar: period
Encoding: 46 46 42
Width: 720
Flags: HW
LayerCount: 2
Fore
SplineSet
197 39 m 28
 197 61 214 80 236 80 c 24
 258 80 276 63 276 40 c 24
 276 18 259 0 237 0 c 24
 215 -0 197 17 197 39 c 28
EndSplineSet
EndChar

StartChar: slash
Encoding: 47 47 43
Width: 720
Flags: HW
LayerCount: 2
Fore
SplineSet
352.818359375 600.907226562 m 1
 440.514648438 601.592773438 l 1
 126.345703125 1.5927734375 l 1
 38.6533203125 0.07421875 l 1
 352.818359375 600.907226562 l 1
EndSplineSet
EndChar

StartChar: percent
Encoding: 37 37 44
Width: 720
Flags: HW
LayerCount: 2
Fore
SplineSet
352.818359375 600.907226562 m 1
 440.514648438 601.592773438 l 1
 126.345703125 1.5927734375 l 1
 38.6533203125 0.07421875 l 1
 352.818359375 600.907226562 l 1
118.749023438 460.41796875 m 0
 118.749023438 471.486328125 127.6796875 480.416992188 138.75 480.416992188 c 0
 149.8203125 480.416992188 158.75 471.487304688 158.75 460.41796875 c 0
 158.75 449.344726562 149.821289062 440.416992188 138.75 440.416992188 c 0
 127.678710938 440.416992188 118.749023438 449.345703125 118.749023438 460.41796875 c 0
38.7490234375 460.41796875 m 0
 38.7490234375 405.212890625 83.5478515625 360.416992188 138.75 360.416992188 c 0
 193.954101562 360.416992188 238.75 405.213867188 238.75 460.41796875 c 0
 238.75 515.619140625 193.954101562 560.416992188 138.75 560.416992188 c 0
 83.5478515625 560.416992188 38.7490234375 515.620117188 38.7490234375 460.41796875 c 0
320 180.833007812 m 0
 320 191.90234375 328.928710938 200.833007812 340.000976562 200.833007812 c 0
 351.0703125 200.833007812 360 191.903320312 360 180.833007812 c 0
 360 169.76171875 351.069335938 160.83203125 340.000976562 160.83203125 c 0
 328.9296875 160.83203125 320 169.762695312 320 180.833007812 c 0
240 180.833007812 m 0
 240 125.629882812 284.796875 80.83203125 340.000976562 80.83203125 c 0
 395.203125 80.83203125 440 125.629882812 440 180.833007812 c 0
 440 236.037109375 395.202148438 280.833007812 340.000976562 280.833007812 c 0
 284.798828125 280.833007812 240 236.038085938 240 180.833007812 c 0
EndSplineSet
EndChar

StartChar: plus
Encoding: 43 43 45
Width: 720
Flags: HW
LayerCount: 2
Fore
SplineSet
40.0009765625 360 m 1
 40.0009765625 280 l 1
 440.000976562 280 l 1
 440.000976562 360 l 1
 40.0009765625 360 l 1
280.000976562 520 m 1
 200.000976562 520 l 1
 200.000976562 120 l 1
 280.000976562 120 l 1
 280.000976562 520 l 1
EndSplineSet
EndChar

StartChar: asterisk
Encoding: 42 42 46
Width: 720
Flags: HW
LayerCount: 2
Fore
SplineSet
185 799 m 1053
200 519.999023438 m 1
 280.000976562 519.999023438 l 1
 280.000976562 119.999023438 l 1
 200 119.999023438 l 1
 200 519.999023438 l 1
393.205078125 454.640625 m 1
 433.204101562 385.360351562 l 1
 86.7958984375 185.359375 l 1
 46.7939453125 254.639648438 l 1
 393.205078125 454.640625 l 1
86.7958984375 454.641601562 m 1
 433.204101562 254.639648438 l 1
 393.205078125 185.360351562 l 1
 46.7939453125 385.360351562 l 1
 86.7958984375 454.641601562 l 1
EndSplineSet
EndChar

StartChar: parenleft
Encoding: 40 40 47
Width: 720
Flags: HW
LayerCount: 2
Fore
SplineSet
102.2890625 299.87109375 m 0
 102.2890625 177.534179688 163.139648438 48.3759765625 290.657226562 -0.681640625 c 1
 300.19921875 24.2080078125 309.903320312 49.169921875 319.341796875 74.013671875 c 1
 231.013671875 107.995117188 182.2890625 201.166015625 182.2890625 299.87109375 c 0
 182.2890625 397.737304688 229.821289062 488.239257812 319.478515625 520.723632812 c 1
 292.221679688 595.953125 l 1
 162.708007812 549.02734375 102.2890625 421.401367188 102.2890625 299.87109375 c 0
EndSplineSet
EndChar

StartChar: parenright
Encoding: 41 41 48
Width: 720
Flags: HW
LayerCount: 2
Fore
SplineSet
318.331054688 299.87109375 m 0
 318.331054688 201.166992188 269.60546875 107.995117188 181.231445312 73.9970703125 c 1
 209.9609375 -0.681640625 l 1
 337.479492188 48.3759765625 398.331054688 177.534179688 398.331054688 299.87109375 c 0
 398.331054688 421.401367188 337.911132812 549.028320312 208.3984375 595.953125 c 1
 208.3984375 595.953125 181.141601562 520.723632812 181.174804688 520.711914062 c 0
 270.798828125 488.239257812 318.331054688 397.737304688 318.331054688 299.87109375 c 0
EndSplineSet
EndChar

StartChar: colon
Encoding: 58 58 49
Width: 720
Flags: HW
LayerCount: 2
Fore
SplineSet
238 238 m 28
 261 238 279 221 279 198 c 24
 279 176 261 158 238 158 c 24
 216 158 197 175 197 198 c 24
 197 220 216 238 238 238 c 28
236 439 m 24
 259 439 277 422 278 399 c 24
 279 377 261 359 238 359 c 24
 216 359 199 376 198 398 c 24
 197 420 214 439 236 439 c 24
EndSplineSet
EndChar

StartChar: degree
Encoding: 176 176 50
Width: 720
Flags: HW
LayerCount: 2
Fore
SplineSet
119.583007812 440.833007812 m 0
 119.583007812 485.041992188 155.375 520.833007812 199.583007812 520.833007812 c 0
 243.791015625 520.833007812 279.583984375 485.041992188 279.583984375 440.833007812 c 0
 279.583984375 396.625976562 243.791015625 360.83203125 199.583007812 360.83203125 c 0
 155.375976562 360.83203125 119.583007812 396.625976562 119.583007812 440.833007812 c 0
39.5830078125 440.833007812 m 0
 39.5830078125 352.494140625 111.2421875 280.83203125 199.583007812 280.83203125 c 0
 287.923828125 280.83203125 359.583984375 352.494140625 359.583984375 440.833007812 c 0
 359.583984375 529.174804688 287.922851562 600.833007812 199.583007812 600.833007812 c 0
 111.243164062 600.833007812 39.5830078125 529.174804688 39.5830078125 440.833007812 c 0
EndSplineSet
EndChar

StartChar: quotedbl
Encoding: 34 34 51
Width: 720
Flags: HW
LayerCount: 2
Fore
SplineSet
119.165039062 600.833984375 m 1
 199.166015625 600.833984375 l 1
 199.166015625 401.666992188 l 1
 119.165039062 401.666992188 l 1
 119.165039062 600.833984375 l 1
280.000976562 600.833984375 m 1
 359.999023438 600.833984375 l 1
 359.999023438 400 l 1
 280.000976562 400 l 1
 280.000976562 600.833984375 l 1
EndSplineSet
EndChar

StartChar: bracketleft
Encoding: 91 91 52
Width: 720
Flags: HW
LayerCount: 2
Fore
SplineSet
360.045898438 0.0009765625 m 1
 360.045898438 80.0009765625 l 1
 118.379882812 80.0009765625 l 1
 118.379882812 519.166992188 l 1
 359.213867188 519.166992188 l 1
 359.213867188 599.166992188 l 1
 38.3798828125 599.166992188 l 1
 38.3798828125 0.0009765625 l 1
 360.045898438 0.0009765625 l 1
EndSplineSet
EndChar

StartChar: bracketright
Encoding: 93 93 53
Width: 720
Flags: HW
LayerCount: 2
Fore
SplineSet
358.380859375 517.5 m 1
 358.380859375 78.333984375 l 1
 116.711914062 78.333984375 l 1
 116.711914062 -1.666015625 l 1
 438.380859375 -1.666015625 l 1
 438.380859375 597.5 l 1
 117.545898438 597.5 l 1
 117.545898438 517.5 l 1
 358.380859375 517.5 l 1
EndSplineSet
EndChar
